<svg width="130" height="130" viewBox="0 0 130 130" fill="none" xmlns="http://www.w3.org/2000/svg">
<path d="M64.9154 130C100.767 130 129.831 100.899 129.831 65C129.831 29.1015 100.767 0 64.9154 0C29.0637 0 0 29.1015 0 65C0 100.899 29.0637 130 64.9154 130Z" fill="#EBEBEB"/>
<path d="M88.5453 26.4344C88.696 29.5244 87.8538 32.5813 86.1423 35.1568C84.4211 37.8553 81.9823 40.0195 79.1001 41.4062C76.1414 42.8988 72.7204 43.1863 69.5546 42.2082C66.5476 41.2659 63.9703 39.289 62.2788 36.6273C64.599 38.3133 67.2681 39.4554 70.0886 39.9692C71.4007 40.2202 72.7483 40.2202 74.0603 39.9692C75.3735 39.7721 76.6468 39.3659 77.8318 38.7661C78.4611 38.4649 79.0738 38.1302 79.6674 37.7635C80.2497 37.4122 80.8072 37.0214 81.3362 36.5938C82.4577 35.7712 83.4773 34.8176 84.3734 33.7532C86.2222 31.6058 87.6389 29.1205 88.5453 26.4344Z" fill="#C7C7C7"/>
<path d="M65.2158 30.1774C64.9283 28.0131 65.4002 25.816 66.5508 23.9614C67.7243 22.0374 69.428 20.4939 71.457 19.5167C73.535 18.4914 75.9318 18.3234 78.1322 19.0488C80.22 19.7511 81.9547 21.2365 82.9715 23.1928C81.3333 22.1692 79.5058 21.4872 77.5981 21.1876C75.8805 20.9847 74.141 21.2866 72.5918 22.0565C69.2227 23.7674 66.598 26.6571 65.2158 30.1774Z" fill="#C7C7C7"/>
<path d="M64.9155 95.545C65.7226 97.528 65.7819 99.7373 65.0823 101.761C64.3914 103.846 63.0887 105.675 61.3443 107.008C60.446 107.711 59.4162 108.227 58.3156 108.525C57.2151 108.824 56.066 108.899 54.9361 108.745C52.8151 108.447 50.8783 107.376 49.4959 105.738C51.2804 106.333 53.1565 106.604 55.0362 106.54C56.7 106.407 58.2891 105.792 59.6087 104.769C60.9556 103.699 62.0881 102.384 62.9462 100.892C63.92 99.2435 64.5873 97.4319 64.9155 95.545Z" fill="#C7C7C7"/>
<path d="M51.4651 102.931C50.7554 101.596 50.5996 100.035 51.0313 98.5861C51.4724 97.0713 52.3843 95.7368 53.6346 94.7763C54.2826 94.2664 55.0306 93.8987 55.8298 93.6972C56.6291 93.4957 57.4618 93.4648 58.2737 93.6067C59.0236 93.7301 59.7399 94.0076 60.3775 94.4217C61.0151 94.8358 61.5602 95.3775 61.9785 96.0129C60.7276 95.7541 59.4447 95.6865 58.1736 95.8124C57.1541 95.975 56.1908 96.3884 55.3701 97.0154C53.4628 98.5114 52.0923 100.587 51.4651 102.931Z" fill="#C7C7C7"/>
<path d="M41.5192 37.0951C42.0968 37.6286 42.5602 38.2739 42.8815 38.9919C43.2027 39.71 43.3751 40.4858 43.3882 41.2725C43.4028 42.9812 42.7431 44.6266 41.5526 45.8509C40.9341 46.4698 40.1826 46.939 39.3555 47.2228C38.5283 47.5066 37.6473 47.5975 36.7798 47.4884C35.2466 47.3182 33.8196 46.6215 32.7414 45.5167C34.0844 45.5467 35.4269 45.4347 36.7465 45.1825C37.8003 45.0369 38.7753 44.5428 39.5166 43.7789C40.3043 43.0021 40.8789 42.0353 41.1854 40.9717C41.5025 39.7056 41.6152 38.3969 41.5192 37.0951Z" fill="#C7C7C7"/>
<path d="M33.4757 43.4113C33.0086 43.0775 32.6222 42.6429 32.3449 42.1398C32.0677 41.6366 31.9066 41.0776 31.8737 40.5039C31.8445 39.8895 31.9421 39.2756 32.1603 38.7007C32.3785 38.1257 32.7127 37.6019 33.1419 37.162C33.5759 36.7411 34.0954 36.4188 34.665 36.217C35.2345 36.0152 35.8408 35.9386 36.4425 35.9925C37.0443 36.0464 37.6273 36.2295 38.152 36.5294C38.6768 36.8292 39.1308 37.2387 39.4833 37.7301C38.5597 37.8444 37.6453 38.0231 36.7466 38.2648C36.1507 38.4152 35.6079 38.7275 35.1779 39.1671C34.7136 39.6407 34.3402 40.1958 34.0765 40.8046C33.7608 41.6428 33.5588 42.5195 33.4757 43.4113Z" fill="#C7C7C7"/>
<path d="M86.6429 105.604C86.2567 106.287 85.7394 106.887 85.1208 107.368C84.5021 107.85 83.7944 108.205 83.0384 108.411C82.2174 108.633 81.3604 108.688 80.5178 108.574C79.6752 108.459 78.8641 108.176 78.1322 107.743C77.389 107.292 76.757 106.68 76.2831 105.951C75.8092 105.222 75.5058 104.395 75.3953 103.532C75.1936 101.991 75.5106 100.427 76.2964 99.0874C76.6032 100.404 77.0276 101.69 77.5647 102.931C77.9712 103.92 78.6851 104.752 79.6007 105.303C80.5558 105.859 81.6338 106.17 82.738 106.206C84.0634 106.216 85.3818 106.013 86.6429 105.604Z" fill="#C7C7C7"/>
<path d="M78.566 99.3213C78.7579 98.7845 79.0719 98.2997 79.4831 97.9053C79.8944 97.5109 80.3917 97.2176 80.9357 97.0488C81.5386 96.8621 82.174 96.8043 82.8007 96.8791C83.4274 96.9539 84.0314 97.1598 84.5736 97.4833C85.1339 97.8051 85.6067 98.2599 85.95 98.8077C86.2934 99.3555 86.497 99.9795 86.5427 100.625C86.6 101.187 86.5439 101.754 86.3776 102.294C86.2114 102.834 85.9383 103.334 85.5748 103.766C85.2424 102.894 84.8522 102.046 84.4068 101.226C84.1009 100.691 83.6645 100.243 83.1385 99.9229C82.5687 99.5723 81.9321 99.3447 81.2694 99.2545C80.3698 99.1459 79.4592 99.1684 78.566 99.3213Z" fill="#C7C7C7"/>
<path d="M108.871 59.8535C108.946 60.6351 108.861 61.4238 108.619 62.171C108.378 62.9182 107.987 63.6081 107.469 64.1979C106.924 64.8471 106.252 65.3777 105.494 65.757C104.737 66.1363 103.909 66.3564 103.064 66.4036C102.193 66.4643 101.32 66.3207 100.515 65.9842C99.7096 65.6477 98.9938 65.1276 98.4245 64.4653C97.3785 63.3172 96.7649 61.84 96.689 60.2879C97.6651 61.221 98.7266 62.0602 99.8596 62.7943C100.769 63.3605 101.827 63.64 102.897 63.5964C104.001 63.5142 105.068 63.1582 106.001 62.5604C107.108 61.8327 108.079 60.9166 108.871 59.8535Z" fill="#C7C7C7"/>
<path d="M98.6581 59.2185C98.5045 58.6455 98.4879 58.0443 98.6097 57.4637C98.7314 56.883 98.9881 56.3393 99.3589 55.8766C99.759 55.3677 100.265 54.9518 100.841 54.6576C101.417 54.3633 102.05 54.1978 102.696 54.1722C103.332 54.1393 103.966 54.2585 104.547 54.5201C105.127 54.7816 105.637 55.1779 106.034 55.6761C106.395 56.1029 106.666 56.5979 106.833 57.1318C106.999 57.6656 107.057 58.2275 107.002 58.784C106.23 58.2674 105.428 57.7987 104.599 57.3804C104.044 57.0913 103.42 56.9639 102.797 57.0128C102.134 57.0449 101.486 57.2156 100.894 57.5141C100.068 57.9674 99.3144 58.5419 98.6581 59.2185Z" fill="#C7C7C7"/>
<path d="M22.8956 74.5912C22.9687 75.3728 22.8822 76.161 22.6412 76.9079C22.4002 77.6548 22.0098 78.3448 21.4939 78.9357C20.9461 79.5819 20.2734 80.1104 19.5163 80.4895C18.7592 80.8686 17.9333 81.0903 17.0883 81.1414C16.2186 81.1943 15.3482 81.0472 14.5441 80.7112C13.7399 80.3752 13.0234 79.8593 12.4492 79.2031C11.4032 78.055 10.7895 76.5778 10.7136 75.0257C11.7444 75.9551 12.8621 76.7833 14.0511 77.4987C14.943 78.0763 15.9942 78.357 17.0549 78.3008C18.1564 78.2287 19.223 77.8842 20.1589 77.2982C21.2023 76.5393 22.1249 75.6266 22.8956 74.5912Z" fill="#C7C7C7"/>
<path d="M12.716 73.9563C12.5651 73.383 12.5499 72.7824 12.6716 72.2023C12.7933 71.6221 13.0485 71.0784 13.4169 70.6144C13.8187 70.11 14.3255 69.6992 14.9018 69.4107C15.4782 69.1221 16.1103 68.9627 16.7544 68.9434C17.3908 68.9049 18.0269 69.0216 18.6083 69.2836C19.1896 69.5455 19.6988 69.9448 20.092 70.4473C20.4497 70.876 20.7193 71.3713 20.8854 71.9046C21.0515 72.438 21.1108 72.9989 21.0599 73.5552C20.2879 73.0292 19.4855 72.5494 18.6569 72.1182C18.0935 71.8549 17.4759 71.729 16.8546 71.7506C16.195 71.799 15.5502 71.969 14.9522 72.2519C14.1364 72.7208 13.3847 73.2937 12.716 73.9563Z" fill="#C7C7C7"/>
<path d="M110.84 110.985C102.259 119.545 91.4564 125.528 79.6547 128.259C67.8529 130.989 55.5236 130.358 44.062 126.435C32.6004 122.512 22.4644 115.455 14.8012 106.062C7.13795 96.6693 2.25355 85.3163 0.700897 73.2879C3.21199 83.756 8.48279 93.3574 15.9632 101.09C23.4436 108.823 32.8596 114.405 43.2286 117.252C53.5976 120.099 64.5397 120.107 74.913 117.276C85.2864 114.445 94.711 108.878 102.203 101.157C109.696 93.4354 114.981 83.8421 117.508 73.3779C120.035 62.9137 119.712 51.9622 116.571 41.666C113.43 31.3698 107.587 22.1064 99.6517 14.8422C91.7163 7.57794 81.9795 2.57921 71.457 0.367554C83.6932 1.57035 95.3361 6.22963 105.03 13.8026C114.723 21.3756 122.068 31.5506 126.209 43.1423C130.35 54.734 131.117 67.2652 128.419 79.2762C125.722 91.2873 119.672 102.284 110.974 110.985H110.84Z" fill="#DBDBDB"/>
</svg>
