<svg width="1440" height="485" viewBox="0 0 1440 485" fill="none" xmlns="http://www.w3.org/2000/svg">
<g opacity="0.6">
<path opacity="0.6" d="M646.131 349.275C646.131 351.506 645.243 353.686 643.579 355.54C641.916 357.395 639.551 358.84 636.784 359.694C634.018 360.548 630.973 360.771 628.036 360.336C625.099 359.901 622.402 358.827 620.284 357.249C618.167 355.672 616.725 353.663 616.141 351.475C615.556 349.288 615.856 347.02 617.002 344.959C618.148 342.899 620.089 341.137 622.579 339.898C625.068 338.659 627.996 337.998 630.99 337.998C635.006 337.998 638.857 339.186 641.696 341.301C644.536 343.416 646.131 346.284 646.131 349.275Z" fill="#42C562"/>
<path opacity="0.6" d="M550.096 399.459C550.096 400.548 549.663 401.612 548.851 402.517C548.039 403.422 546.884 404.128 545.534 404.545C544.184 404.961 542.698 405.07 541.264 404.858C539.831 404.645 538.514 404.121 537.48 403.351C536.447 402.582 535.743 401.601 535.458 400.533C535.173 399.465 535.319 398.358 535.878 397.353C536.438 396.347 537.385 395.487 538.6 394.882C539.816 394.278 541.244 393.955 542.706 393.955C543.683 393.936 544.655 394.066 545.563 394.336C546.471 394.606 547.295 395.011 547.987 395.526C548.678 396.041 549.221 396.655 549.584 397.331C549.947 398.007 550.121 398.731 550.096 399.459Z" fill="#42C562"/>
<path opacity="0.6" d="M1003.23 421.665C1003.2 422.721 1002.75 423.746 1001.93 424.611C1001.12 425.476 999.98 426.144 998.66 426.529C997.34 426.915 995.896 427.003 994.51 426.781C993.123 426.558 991.856 426.037 990.865 425.281C989.875 424.525 989.206 423.568 988.942 422.53C988.678 421.492 988.831 420.419 989.382 419.446C989.932 418.472 990.856 417.641 992.038 417.057C993.219 416.473 994.606 416.161 996.024 416.16C996.986 416.16 997.939 416.303 998.825 416.582C999.712 416.86 1000.51 417.267 1001.19 417.78C1001.86 418.293 1002.39 418.901 1002.74 419.568C1003.09 420.236 1003.26 420.948 1003.23 421.665Z" fill="#42C562"/>
</g>
<path opacity="0.6" d="M390.218 477.434C390.218 479.409 391.269 481.303 393.141 482.703C395.012 484.102 397.552 484.891 400.204 484.898H1025.8C1028.36 484.784 1030.76 483.946 1032.52 482.557C1034.28 481.167 1035.26 479.33 1035.26 477.42C1035.26 475.511 1034.28 473.674 1032.52 472.284C1030.76 470.894 1028.36 470.057 1025.8 469.942C1024.99 469.943 1024.18 470.015 1023.39 470.157C1023.39 467.227 1022.23 464.361 1020.03 461.928C1017.84 459.494 1014.72 457.604 1011.08 456.499C1007.43 455.394 1003.43 455.125 999.578 455.727C995.727 456.328 992.205 457.772 989.463 459.873H989.283C989.283 458.96 989.463 458.047 989.463 457.188C989.463 453.533 988.496 449.914 986.617 446.537C984.737 443.16 981.983 440.092 978.512 437.509C975.04 434.925 970.918 432.877 966.383 431.481C961.848 430.084 956.987 429.367 952.08 429.371C946.394 429.357 940.78 430.322 935.678 432.19C935.329 427.664 932.913 423.363 928.83 420.001C924.747 416.639 919.244 414.417 913.233 413.706C907.222 412.994 901.065 413.835 895.784 416.088C890.503 418.342 886.415 421.873 884.199 426.095C880.848 422.111 876.191 418.828 870.666 416.555C865.142 414.282 858.932 413.092 852.62 413.099C850.201 413.101 847.787 413.272 845.411 413.609C845.919 411.464 846.172 409.29 846.168 407.112C846.195 399.892 843.431 392.82 838.207 386.74C832.982 380.659 825.517 375.828 816.704 372.824C807.891 369.819 798.103 368.768 788.51 369.797C778.916 370.825 769.923 373.889 762.606 378.623C762.445 378.346 762.239 378.084 761.993 377.844C761.506 368.395 756.124 359.453 746.977 352.895C737.829 346.338 725.626 342.675 712.93 342.675C700.234 342.675 688.031 346.338 678.883 352.895C669.735 359.453 664.353 368.395 663.867 377.844C663.621 378.084 663.415 378.346 663.254 378.623C655.943 373.875 646.95 370.797 637.351 369.758C627.753 368.718 617.955 369.761 609.132 372.761C600.308 375.761 592.832 380.591 587.598 386.674C582.364 392.756 579.594 399.833 579.62 407.058C579.615 409.236 579.869 411.411 580.377 413.556C578.001 413.218 575.587 413.047 573.167 413.046C566.856 413.039 560.646 414.228 555.121 416.501C549.597 418.775 544.94 422.058 541.588 426.041C539.376 421.822 535.295 418.291 530.02 416.036C524.746 413.781 518.595 412.936 512.587 413.641C506.579 414.346 501.075 416.559 496.987 419.913C492.899 423.267 490.473 427.561 490.11 432.083C484.413 430.011 478.103 429.052 471.771 429.297C465.44 429.541 459.296 430.981 453.918 433.481C448.539 435.981 444.103 439.459 441.025 443.587C437.947 447.715 436.33 452.359 436.325 457.081C436.325 457.994 436.325 458.907 436.505 459.766H436.325C433.583 457.664 430.061 456.22 426.21 455.619C422.359 455.018 418.355 455.287 414.71 456.392C411.066 457.497 407.948 459.387 405.755 461.82C403.562 464.253 402.395 467.119 402.403 470.05C401.612 469.907 400.801 469.835 399.987 469.835C397.345 469.891 394.839 470.72 393.01 472.142C391.182 473.564 390.179 475.465 390.218 477.434Z" fill="#42C562"/>
<g opacity="0.6">
<path opacity="0.6" d="M1386.54 414.281C1386.54 417.43 1387.8 420.508 1390.15 423.127C1392.5 425.745 1395.83 427.786 1399.74 428.991C1403.65 430.196 1407.95 430.512 1412.09 429.897C1416.24 429.283 1420.05 427.767 1423.04 425.54C1426.03 423.313 1428.06 420.476 1428.89 417.387C1429.71 414.298 1429.29 411.097 1427.67 408.187C1426.05 405.278 1423.31 402.791 1419.8 401.042C1416.28 399.292 1412.15 398.358 1407.92 398.358C1402.25 398.358 1396.81 400.036 1392.81 403.022C1388.8 406.008 1386.54 410.058 1386.54 414.281Z" fill="#42C562"/>
<path opacity="0.6" d="M1352.51 387.913C1352.51 389.448 1353.12 390.948 1354.27 392.224C1355.41 393.501 1357.04 394.495 1358.95 395.082C1360.85 395.67 1362.94 395.823 1364.96 395.524C1366.99 395.225 1368.84 394.486 1370.3 393.4C1371.76 392.315 1372.75 390.932 1373.15 389.427C1373.55 387.922 1373.35 386.362 1372.56 384.944C1371.77 383.526 1370.43 382.314 1368.72 381.461C1367.01 380.608 1364.99 380.153 1362.93 380.153C1360.17 380.153 1357.52 380.971 1355.57 382.426C1353.61 383.881 1352.51 385.855 1352.51 387.913Z" fill="#42C562"/>
<path opacity="0.6" d="M725.042 353.249C725.042 354.784 725.653 356.284 726.798 357.56C727.943 358.836 729.57 359.831 731.474 360.418C733.377 361.005 735.472 361.159 737.493 360.86C739.514 360.56 741.37 359.821 742.827 358.736C744.284 357.651 745.277 356.268 745.679 354.763C746.081 353.258 745.874 351.697 745.086 350.279C744.297 348.861 742.962 347.65 741.249 346.797C739.535 345.944 737.521 345.489 735.461 345.489C732.698 345.489 730.048 346.307 728.094 347.762C726.14 349.217 725.042 351.191 725.042 353.249Z" fill="#42C562"/>
</g>
<path opacity="0.6" d="M1451 474.426C1451 477.22 1449.51 479.9 1446.86 481.879C1444.21 483.857 1440.62 484.972 1436.87 484.979H554.386C552.373 484.991 550.379 484.684 548.538 484.078C546.696 483.472 545.05 482.58 543.707 481.463C542.365 480.345 541.358 479.027 540.753 477.597C540.148 476.167 539.96 474.657 540.2 473.168C540.44 471.679 541.104 470.246 542.146 468.963C543.189 467.68 544.586 466.577 546.246 465.728C547.905 464.879 549.789 464.304 551.77 464.04C553.752 463.775 555.787 463.829 557.738 464.196C557.735 460.063 559.386 456.023 562.481 452.592C565.576 449.161 569.975 446.496 575.114 444.937C580.253 443.377 585.9 442.995 591.332 443.838C596.765 444.681 601.736 446.712 605.612 449.67H605.864C605.864 448.381 605.612 446.985 605.612 445.804C605.627 439.158 607.906 432.624 612.238 426.813C616.569 421.003 622.809 416.107 630.375 412.584C637.94 409.061 646.583 407.026 655.492 406.67C664.402 406.314 673.287 407.648 681.315 410.548C681.683 404.093 685.037 397.932 690.807 393.108C696.577 388.284 704.41 385.094 712.976 384.08C721.543 383.065 730.317 384.288 737.812 387.541C745.306 390.794 751.06 395.878 754.098 401.929C758.834 396.308 765.412 391.675 773.212 388.467C781.013 385.259 789.78 383.581 798.691 383.59C802.065 383.591 805.432 383.825 808.749 384.288C808.022 381.267 807.66 378.202 807.667 375.132C807.598 364.926 811.481 354.922 818.85 346.317C826.22 337.712 836.763 330.872 849.218 326.617C861.672 322.361 875.51 320.869 889.073 322.321C902.637 323.773 915.35 328.106 925.692 334.802C925.924 334.412 926.214 334.043 926.557 333.702C927.37 320.436 935.018 307.914 947.909 298.741C960.8 289.567 977.943 284.448 995.772 284.448C1013.6 284.448 1030.74 289.567 1043.63 298.741C1056.53 307.914 1064.17 320.436 1064.99 333.702C1065.33 334.043 1065.62 334.412 1065.85 334.802C1076.19 328.143 1088.89 323.84 1102.42 322.405C1115.95 320.97 1129.75 322.464 1142.18 326.709C1154.6 330.954 1165.13 337.771 1172.49 346.347C1179.86 354.924 1183.76 364.897 1183.73 375.079C1183.74 378.149 1183.38 381.213 1182.65 384.235C1185.97 383.771 1189.33 383.537 1192.71 383.537C1201.6 383.549 1210.35 385.243 1218.12 388.46C1225.89 391.677 1232.44 396.311 1237.16 401.929C1240.26 395.962 1246.01 390.966 1253.45 387.771C1260.89 384.577 1269.58 383.378 1278.07 384.372C1286.55 385.367 1294.33 388.497 1300.09 393.239C1305.86 397.982 1309.27 404.053 1309.76 410.441C1317.79 407.541 1326.67 406.206 1335.58 406.562C1344.49 406.918 1353.13 408.953 1360.7 412.476C1368.26 416 1374.51 420.896 1378.84 426.706C1383.17 432.516 1385.45 439.05 1385.46 445.696C1385.46 447.012 1385.46 448.381 1385.21 449.563H1385.46C1389.34 446.604 1394.31 444.574 1399.74 443.73C1405.17 442.887 1410.82 443.27 1415.96 444.829C1421.1 446.389 1425.5 449.054 1428.59 452.485C1431.69 455.915 1433.34 459.956 1433.34 464.089C1435.42 463.694 1437.59 463.66 1439.7 463.991C1441.8 464.322 1443.77 465.008 1445.46 465.997C1447.15 466.986 1448.51 468.25 1449.44 469.693C1450.37 471.136 1450.84 472.719 1450.82 474.319L1451 474.426Z" fill="#42C562"/>
<g opacity="0.6">
<path opacity="0.6" d="M336.036 293.587C336.036 296.736 334.782 299.814 332.434 302.433C330.085 305.051 326.746 307.092 322.84 308.297C318.934 309.502 314.635 309.818 310.489 309.203C306.342 308.589 302.533 307.072 299.543 304.845C296.553 302.619 294.518 299.782 293.693 296.693C292.868 293.604 293.291 290.403 294.909 287.493C296.527 284.584 299.267 282.097 302.783 280.348C306.298 278.598 310.431 277.664 314.659 277.664C320.329 277.664 325.766 279.342 329.775 282.328C333.784 285.314 336.036 289.364 336.036 293.587Z" fill="#42C562"/>
<path opacity="0.6" d="M200.527 364.338C200.527 365.873 199.916 367.373 198.772 368.649C197.627 369.926 196 370.92 194.096 371.507C192.192 372.095 190.098 372.248 188.077 371.949C186.056 371.65 184.2 370.911 182.743 369.825C181.286 368.74 180.293 367.357 179.891 365.852C179.489 364.347 179.696 362.787 180.484 361.369C181.273 359.951 182.608 358.739 184.321 357.886C186.035 357.033 188.049 356.578 190.109 356.578C192.872 356.578 195.522 357.396 197.476 358.851C199.43 360.306 200.527 362.28 200.527 364.338Z" fill="#42C562"/>
<path opacity="0.6" d="M839.823 395.673C839.823 397.208 839.212 398.708 838.067 399.984C836.922 401.26 835.295 402.255 833.392 402.842C831.488 403.43 829.393 403.583 827.372 403.284C825.351 402.984 823.495 402.245 822.038 401.16C820.581 400.075 819.589 398.692 819.187 397.187C818.785 395.682 818.991 394.122 819.779 392.704C820.568 391.286 821.903 390.074 823.617 389.221C825.33 388.368 827.344 387.913 829.405 387.913C832.168 387.913 834.818 388.731 836.771 390.186C838.725 391.641 839.823 393.615 839.823 395.673Z" fill="#42C562"/>
</g>
<path opacity="0.6" d="M-24.9959 474.426C-24.9959 477.22 -23.5083 479.9 -20.8592 481.879C-18.2101 483.857 -14.6158 484.972 -10.8647 484.979H871.618C873.631 484.991 875.625 484.684 877.466 484.078C879.308 483.472 880.954 482.58 882.297 481.463C883.639 480.345 884.646 479.027 885.251 477.597C885.856 476.167 886.044 474.657 885.804 473.168C885.564 471.679 884.9 470.246 883.858 468.963C882.815 467.68 881.418 466.577 879.758 465.728C878.099 464.879 876.216 464.304 874.234 464.04C872.252 463.775 870.217 463.829 868.266 464.196C868.269 460.063 866.618 456.023 863.523 452.592C860.428 449.161 856.03 446.496 850.89 444.937C845.751 443.377 840.104 442.995 834.672 443.838C829.239 444.681 824.268 446.712 820.392 449.67H820.14C820.14 448.381 820.392 446.985 820.392 445.804C820.392 439.14 818.115 432.585 813.774 426.758C809.433 420.931 803.173 416.023 795.581 412.496C787.99 408.969 779.319 406.94 770.384 406.599C761.448 406.259 752.544 407.618 744.509 410.548C744.048 404.152 740.657 398.067 734.901 393.308C729.146 388.549 721.374 385.403 712.882 384.394C704.389 383.386 695.69 384.577 688.233 387.768C680.777 390.959 675.014 395.957 671.906 401.929C667.17 396.308 660.592 391.675 652.792 388.467C644.991 385.259 636.224 383.581 627.313 383.59C623.939 383.591 620.572 383.825 617.255 384.288C617.982 381.267 618.344 378.202 618.337 375.132C618.406 364.926 614.523 354.922 607.154 346.317C599.784 337.712 589.241 330.872 576.787 326.617C564.332 322.361 550.494 320.869 536.931 322.321C523.368 323.773 510.654 328.106 500.312 334.802C500.081 334.412 499.79 334.043 499.447 333.702C498.634 320.436 490.986 307.914 478.095 298.741C465.204 289.567 448.061 284.448 430.233 284.448C412.404 284.448 395.261 289.567 382.37 298.741C369.479 307.914 361.831 320.436 361.018 333.702C360.675 334.043 360.385 334.412 360.153 334.802C349.812 328.143 337.119 323.84 323.586 322.405C310.053 320.97 296.251 322.464 283.826 326.709C271.402 330.954 260.878 337.771 253.51 346.347C246.143 354.924 242.242 364.897 242.272 375.079C242.265 378.149 242.627 381.213 243.354 384.235C240.037 383.771 236.67 383.537 233.296 383.537C224.403 383.549 215.659 385.243 207.885 388.46C200.11 391.677 193.56 396.311 188.848 401.929C185.747 395.962 179.997 390.966 172.553 387.771C165.11 384.577 156.423 383.378 147.937 384.372C139.451 385.367 131.678 388.497 125.912 393.239C120.146 397.982 116.734 404.053 116.245 410.441C108.217 407.541 99.3315 406.206 90.4219 406.562C81.5123 406.918 72.8699 408.953 65.3045 412.476C57.7392 416 51.4985 420.896 47.1674 426.706C42.8362 432.516 40.5563 439.05 40.5414 445.696C40.5414 447.012 40.5414 448.381 40.7937 449.563H40.5414C36.6661 446.604 31.6945 444.574 26.2619 443.73C20.8293 442.887 15.1826 443.27 10.0434 444.829C4.90428 446.389 0.5061 449.054 -2.58894 452.485C-5.68398 455.915 -7.3353 459.956 -7.33185 464.089C-9.43775 463.667 -11.6468 463.616 -13.7836 463.941C-15.9203 464.266 -17.9258 464.958 -19.6407 465.962C-21.3555 466.965 -22.7325 468.253 -23.6621 469.723C-24.5918 471.192 -25.0485 472.803 -24.9959 474.426Z" fill="#42C562"/>
<path d="M743.355 273.583L754.458 275.113L756.946 283.84L759.397 275.113L770.5 273.583L759.469 271.569L756.946 263.353L754.386 271.569L743.355 273.583Z" fill="white"/>
<path d="M67.4341 451.791L78.5373 453.322L81.0247 462.021L83.5121 453.322L94.6152 451.791L83.5481 449.778L81.0247 441.534L78.5012 449.778L67.4341 451.791Z" fill="white"/>
<path d="M1149.63 379.536L1160.73 381.066L1163.22 389.766L1165.71 381.066L1176.81 379.509L1165.74 377.522L1163.22 369.279L1160.7 377.522L1149.63 379.536Z" fill="white"/>
<path d="M1043.9 424.028L1050.1 424.887L1051.47 429.774L1052.87 424.887L1059.07 424.028L1052.91 422.9L1051.47 418.308L1050.06 422.9L1043.9 424.028Z" fill="white"/>
<path d="M765.814 372.689L772.014 373.548L773.42 378.408L774.79 373.548L780.991 372.689L774.826 371.561L773.42 366.97L771.978 371.561L765.814 372.689Z" fill="white"/>
<path d="M1016.18 463.042L1022.38 463.901L1023.78 468.761L1025.15 463.901L1031.35 463.042L1025.19 461.914L1023.78 457.323L1022.38 461.914L1016.18 463.042Z" fill="white"/>
<path d="M859.361 451.603L865.562 452.436L866.932 457.323L868.338 452.436L874.538 451.577L868.374 450.476L866.932 445.857L865.526 450.476L859.361 451.603Z" fill="white"/>
<path d="M166.75 457.323L172.95 458.182L174.356 463.042L175.726 458.182L181.926 457.323L175.762 456.195L174.356 451.603L172.914 456.195L166.75 457.323Z" fill="white"/>
<path d="M880.486 343.717L886.687 344.576L888.093 349.463L889.463 344.576L895.663 343.717L889.499 342.589L888.093 337.998L886.651 342.589L880.486 343.717Z" fill="white"/>
<path d="M1087.91 343.717L1094.11 344.576L1095.48 349.463L1096.89 344.576L1103.09 343.717L1096.89 342.589L1095.48 337.998L1094.08 342.589L1087.91 343.717Z" fill="white"/>
<path d="M695.302 449.106C695.78 449.106 696.238 449.248 696.576 449.499C696.914 449.751 697.104 450.093 697.104 450.449C697.104 450.805 696.914 451.146 696.576 451.398C696.238 451.65 695.78 451.791 695.302 451.791C694.824 451.791 694.365 451.65 694.027 451.398C693.689 451.146 693.499 450.805 693.499 450.449C693.499 450.093 693.689 449.751 694.027 449.499C694.365 449.248 694.824 449.106 695.302 449.106Z" fill="white"/>
<path d="M928.792 307.361C929.27 307.361 929.729 307.502 930.067 307.754C930.405 308.006 930.595 308.347 930.595 308.704C930.595 309.06 930.405 309.401 930.067 309.653C929.729 309.905 929.27 310.046 928.792 310.046C928.314 310.046 927.856 309.905 927.518 309.653C927.18 309.401 926.99 309.06 926.99 308.704C926.99 308.347 927.18 308.006 927.518 307.754C927.856 307.502 928.314 307.361 928.792 307.361Z" fill="white"/>
<path d="M1082.29 455.631C1082.77 455.631 1083.23 455.772 1083.56 456.024C1083.9 456.276 1084.09 456.617 1084.09 456.973C1084.09 457.329 1083.9 457.671 1083.56 457.923C1083.23 458.174 1082.77 458.316 1082.29 458.316C1081.81 458.316 1081.35 458.174 1081.01 457.923C1080.68 457.671 1080.49 457.329 1080.49 456.973C1080.49 456.617 1080.68 456.276 1081.01 456.024C1081.35 455.772 1081.81 455.631 1082.29 455.631Z" fill="white"/>
<path d="M968.266 437.238C968.744 437.238 969.202 437.38 969.541 437.631C969.879 437.883 970.068 438.225 970.068 438.581C970.068 438.937 969.879 439.278 969.541 439.53C969.202 439.782 968.744 439.923 968.266 439.923C967.788 439.923 967.33 439.782 966.992 439.53C966.653 439.278 966.464 438.937 966.464 438.581C966.464 438.225 966.653 437.883 966.992 437.631C967.33 437.38 967.788 437.238 968.266 437.238Z" fill="white"/>
<path d="M740.363 425.021C740.698 425.021 741.019 425.12 741.256 425.296C741.492 425.473 741.625 425.712 741.625 425.961C741.625 426.21 741.492 426.449 741.256 426.625C741.019 426.802 740.698 426.901 740.363 426.901C740.029 426.901 739.708 426.802 739.471 426.625C739.235 426.449 739.102 426.21 739.102 425.961C739.102 425.712 739.235 425.473 739.471 425.296C739.708 425.12 740.029 425.021 740.363 425.021Z" fill="white"/>
<path d="M752.007 196.467C752.342 196.467 752.663 196.566 752.899 196.742C753.136 196.919 753.269 197.158 753.269 197.407C753.269 197.656 753.136 197.895 752.899 198.071C752.663 198.248 752.342 198.347 752.007 198.347C751.673 198.347 751.352 198.248 751.115 198.071C750.878 197.895 750.746 197.656 750.746 197.407C750.746 197.158 750.878 196.919 751.115 196.742C751.352 196.566 751.673 196.467 752.007 196.467Z" fill="white"/>
<path d="M897.61 410.79C897.912 410.828 898.187 410.945 898.385 411.119C898.583 411.294 898.692 411.515 898.692 411.743C898.692 411.972 898.583 412.193 898.385 412.368C898.187 412.542 897.912 412.659 897.61 412.697C897.307 412.659 897.032 412.542 896.834 412.368C896.636 412.193 896.528 411.972 896.528 411.743C896.528 411.515 896.636 411.294 896.834 411.119C897.032 410.945 897.307 410.828 897.61 410.79Z" fill="white"/>
<path d="M1012.71 392.263C1013.02 392.301 1013.29 392.418 1013.49 392.592C1013.69 392.767 1013.8 392.988 1013.8 393.216C1013.8 393.445 1013.69 393.666 1013.49 393.84C1013.29 394.015 1013.02 394.131 1012.71 394.169C1012.41 394.131 1012.14 394.015 1011.94 393.84C1011.74 393.666 1011.63 393.445 1011.63 393.216C1011.63 392.988 1011.74 392.767 1011.94 392.592C1012.14 392.418 1012.41 392.301 1012.71 392.263Z" fill="white"/>
<path d="M815.778 396.156C816.513 396.326 817.155 396.667 817.611 397.128C818.068 397.59 818.314 398.148 818.314 398.721C818.314 399.294 818.068 399.852 817.611 400.313C817.155 400.774 816.513 401.115 815.778 401.285C815.044 401.115 814.401 400.774 813.945 400.313C813.489 399.852 813.242 399.294 813.242 398.721C813.242 398.148 813.489 397.59 813.945 397.128C814.401 396.667 815.044 396.326 815.778 396.156Z" fill="white"/>
<path d="M996.42 383.563C997.155 383.733 997.797 384.074 998.254 384.535C998.71 384.997 998.956 385.555 998.956 386.128C998.956 386.701 998.71 387.259 998.254 387.72C997.797 388.181 997.155 388.522 996.42 388.692C995.686 388.522 995.043 388.181 994.587 387.72C994.131 387.259 993.885 386.701 993.885 386.128C993.885 385.555 994.131 384.997 994.587 384.535C995.043 384.074 995.686 383.733 996.42 383.563Z" fill="white"/>
<path d="M678.503 29.2136L689.606 30.7441L692.094 39.4706L694.581 30.7441L705.684 29.2136L694.617 27.1998L692.094 18.9835L689.57 27.1998L678.503 29.2136Z" fill="white"/>
<path d="M591.697 427.304L597.933 428.163L599.303 433.05L600.673 428.163L606.909 427.304L600.709 426.203L599.303 421.584L597.897 426.203L591.697 427.304Z" fill="white"/>
<path d="M712.245 5.71923L718.445 6.57847L719.851 11.4385L721.221 6.57847L727.422 5.71923L721.257 4.59146L719.851 0L718.409 4.59146L712.245 5.71923Z" fill="white"/>
<path d="M366.354 352.309C366.832 352.309 367.29 352.451 367.628 352.702C367.966 352.954 368.156 353.296 368.156 353.652C368.156 354.008 367.966 354.349 367.628 354.601C367.29 354.853 366.832 354.994 366.354 354.994C365.876 354.994 365.417 354.853 365.079 354.601C364.741 354.349 364.551 354.008 364.551 353.652C364.551 353.296 364.741 352.954 365.079 352.702C365.417 352.451 365.876 352.309 366.354 352.309Z" fill="white"/>
<path d="M630.089 458.933C630.567 458.933 631.025 459.075 631.364 459.327C631.702 459.578 631.891 459.92 631.891 460.276C631.891 460.632 631.702 460.974 631.364 461.225C631.025 461.477 630.567 461.619 630.089 461.619C629.611 461.619 629.153 461.477 628.815 461.225C628.476 460.974 628.287 460.632 628.287 460.276C628.287 459.92 628.476 459.578 628.815 459.327C629.153 459.075 629.611 458.933 630.089 458.933Z" fill="white"/>
<path d="M516.102 440.514C516.58 440.514 517.038 440.655 517.376 440.907C517.714 441.159 517.904 441.5 517.904 441.856C517.904 442.213 517.714 442.554 517.376 442.806C517.038 443.058 516.58 443.199 516.102 443.199C515.624 443.199 515.165 443.058 514.827 442.806C514.489 442.554 514.299 442.213 514.299 441.856C514.299 441.5 514.489 441.159 514.827 440.907C515.165 440.655 515.624 440.514 516.102 440.514Z" fill="white"/>
<path d="M445.445 414.093C445.78 414.093 446.101 414.192 446.337 414.368C446.574 414.544 446.707 414.783 446.707 415.033C446.707 415.282 446.574 415.521 446.337 415.697C446.101 415.873 445.78 415.972 445.445 415.972C445.111 415.972 444.79 415.873 444.553 415.697C444.317 415.521 444.184 415.282 444.184 415.033C444.184 414.783 444.317 414.544 444.553 414.368C444.79 414.192 445.111 414.093 445.445 414.093Z" fill="white"/>
<path d="M560.55 395.566C560.885 395.566 561.206 395.665 561.442 395.841C561.679 396.017 561.812 396.256 561.812 396.506C561.812 396.755 561.679 396.994 561.442 397.17C561.206 397.346 560.885 397.445 560.55 397.445C560.216 397.445 559.895 397.346 559.658 397.17C559.421 396.994 559.289 396.755 559.289 396.506C559.289 396.256 559.421 396.017 559.658 395.841C559.895 395.665 560.216 395.566 560.55 395.566Z" fill="white"/>
<path d="M645.374 229.521C645.708 229.521 646.029 229.62 646.266 229.796C646.503 229.972 646.635 230.211 646.635 230.46C646.635 230.71 646.503 230.949 646.266 231.125C646.029 231.301 645.708 231.4 645.374 231.4C645.039 231.4 644.718 231.301 644.482 231.125C644.245 230.949 644.112 230.71 644.112 230.46C644.112 230.211 644.245 229.972 644.482 229.796C644.718 229.62 645.039 229.521 645.374 229.521Z" fill="white"/>
<path d="M544.256 386.839C545.005 387.002 545.663 387.341 546.131 387.806C546.599 388.271 546.852 388.836 546.852 389.417C546.852 389.998 546.599 390.563 546.131 391.028C545.663 391.493 545.005 391.832 544.256 391.995C543.507 391.832 542.849 391.493 542.381 391.028C541.913 390.563 541.66 389.998 541.66 389.417C541.66 388.836 541.913 388.271 542.381 387.806C542.849 387.341 543.507 387.002 544.256 386.839Z" fill="white"/>
<path d="M739.138 63.9317C739.872 64.1017 740.515 64.4422 740.971 64.9036C741.427 65.365 741.673 65.923 741.673 66.496C741.673 67.069 741.427 67.6269 740.971 68.0883C740.515 68.5497 739.872 68.8903 739.138 69.0602C738.403 68.8903 737.761 68.5497 737.304 68.0883C736.848 67.6269 736.602 67.069 736.602 66.496C736.602 65.923 736.848 65.365 737.304 64.9036C737.761 64.4422 738.403 64.1017 739.138 63.9317Z" fill="white"/>
<path d="M314.911 446.528C315.66 446.691 316.318 447.03 316.786 447.495C317.254 447.96 317.507 448.525 317.507 449.106C317.507 449.687 317.254 450.252 316.786 450.717C316.318 451.182 315.66 451.521 314.911 451.684C314.163 451.521 313.505 451.182 313.037 450.717C312.569 450.252 312.316 449.687 312.316 449.106C312.316 448.525 312.569 447.96 313.037 447.495C313.505 447.03 314.163 446.691 314.911 446.528Z" fill="white"/>
<path d="M570.5 352.658L576.736 353.517L578.106 358.377L579.512 353.517L585.712 352.658L579.512 351.531L578.106 346.939L576.7 351.531L570.5 352.658Z" fill="white"/>
<path d="M1280.34 451.791L1286.54 452.651L1287.95 457.511L1289.32 452.651L1295.52 451.791L1289.36 450.664L1287.95 446.045L1286.54 450.664L1280.34 451.791Z" fill="white"/>
<path d="M608.892 384.262C609.37 384.262 609.829 384.403 610.167 384.655C610.505 384.907 610.695 385.248 610.695 385.604C610.695 385.96 610.505 386.302 610.167 386.553C609.829 386.805 609.37 386.947 608.892 386.947C608.414 386.947 607.956 386.805 607.618 386.553C607.28 386.302 607.09 385.96 607.09 385.604C607.09 385.248 607.28 384.907 607.618 384.655C607.956 384.403 608.414 384.262 608.892 384.262Z" fill="white"/>
<path d="M663.507 311.979C663.985 311.979 664.443 312.121 664.781 312.372C665.119 312.624 665.309 312.966 665.309 313.322C665.309 313.678 665.119 314.019 664.781 314.271C664.443 314.523 663.985 314.664 663.507 314.664C663.029 314.664 662.57 314.523 662.232 314.271C661.894 314.019 661.704 313.678 661.704 313.322C661.704 312.966 661.894 312.624 662.232 312.372C662.57 312.121 663.029 311.979 663.507 311.979Z" fill="white"/>
<path d="M690.507 132.804L696.708 133.663L698.114 138.523L699.484 133.663L705.684 132.804L699.52 131.676L698.114 127.085L696.708 131.676L690.507 132.804Z" fill="white"/>
<path d="M865.67 336.655C866.148 336.655 866.607 336.797 866.945 337.048C867.283 337.3 867.473 337.642 867.473 337.998C867.473 338.354 867.283 338.695 866.945 338.947C866.607 339.199 866.148 339.34 865.67 339.34C865.192 339.34 864.734 339.199 864.396 338.947C864.058 338.695 863.868 338.354 863.868 337.998C863.868 337.642 864.058 337.3 864.396 337.048C864.734 336.797 865.192 336.655 865.67 336.655Z" fill="white"/>
<path d="M787.443 313.886C787.778 313.886 788.099 313.985 788.336 314.161C788.572 314.337 788.705 314.576 788.705 314.826C788.705 315.075 788.572 315.314 788.336 315.49C788.099 315.666 787.778 315.765 787.443 315.765C787.109 315.765 786.788 315.666 786.551 315.49C786.315 315.314 786.182 315.075 786.182 314.826C786.182 314.576 786.315 314.337 786.551 314.161C786.788 313.985 787.109 313.886 787.443 313.886Z" fill="white"/>
<path d="M365.092 384.262L371.292 385.121L372.698 390.008L374.068 385.121L380.269 384.262L374.104 383.134L372.698 378.542L371.292 383.134L365.092 384.262Z" fill="white"/>
<path d="M1343.36 468.761L1349.59 469.62L1350.96 474.507L1352.37 469.62L1358.57 468.761L1352.37 467.66L1350.96 463.042L1349.56 467.66L1343.36 468.761Z" fill="white"/>
<path d="M275.834 384.262C276.312 384.262 276.771 384.403 277.109 384.655C277.447 384.907 277.637 385.248 277.637 385.604C277.637 385.96 277.447 386.302 277.109 386.553C276.771 386.805 276.312 386.947 275.834 386.947C275.356 386.947 274.898 386.805 274.56 386.553C274.222 386.302 274.032 385.96 274.032 385.604C274.032 385.248 274.222 384.907 274.56 384.655C274.898 384.403 275.356 384.262 275.834 384.262Z" fill="white"/>
<path d="M395.013 391.323C395.315 391.361 395.59 391.478 395.788 391.652C395.986 391.827 396.095 392.048 396.095 392.276C396.095 392.505 395.986 392.726 395.788 392.901C395.59 393.075 395.315 393.192 395.013 393.23C394.71 393.192 394.435 393.075 394.237 392.901C394.039 392.726 393.93 392.505 393.93 392.276C393.93 392.048 394.039 391.827 394.237 391.652C394.435 391.478 394.71 391.361 395.013 391.323Z" fill="white"/>
<path d="M570.284 324.062C571.032 324.225 571.69 324.564 572.158 325.029C572.626 325.493 572.879 326.059 572.879 326.64C572.879 327.221 572.626 327.786 572.158 328.251C571.69 328.716 571.032 329.055 570.284 329.218C569.535 329.055 568.877 328.716 568.409 328.251C567.941 327.786 567.688 327.221 567.688 326.64C567.688 326.059 567.941 325.493 568.409 325.029C568.877 324.564 569.535 324.225 570.284 324.062Z" fill="white"/>
<path d="M1069.24 355.827C1069.97 355.996 1070.62 356.337 1071.07 356.798C1071.53 357.26 1071.78 357.818 1071.78 358.391C1071.78 358.964 1071.53 359.522 1071.07 359.983C1070.62 360.445 1069.97 360.785 1069.24 360.955C1068.5 360.785 1067.86 360.445 1067.41 359.983C1066.95 359.522 1066.7 358.964 1066.7 358.391C1066.7 357.818 1066.95 357.26 1067.41 356.798C1067.86 356.337 1068.5 355.996 1069.24 355.827Z" fill="white"/>
</svg>
